<svg width="100" height="100" viewBox="0 0 100 100" fill="none" xmlns="http://www.w3.org/2000/svg">
<rect width="100" height="100" fill="white"/>
<path d="M7.13102 54.232H14.331V79H7.13102V54.232ZM15.843 65.788H16.707C17.475 65.788 18.039 65.764 18.399 65.716C18.783 65.644 19.083 65.5 19.299 65.284C19.515 65.092 19.647 64.816 19.695 64.456C19.767 64.072 19.803 63.508 19.803 62.764C19.803 62.02 19.767 61.468 19.695 61.108C19.647 60.724 19.515 60.424 19.299 60.208C19.083 60.016 18.783 59.896 18.399 59.848C18.015 59.776 17.451 59.74 16.707 59.74H15.843V54.232H18.831C20.607 54.232 22.047 54.412 23.151 54.772C24.279 55.108 25.131 55.636 25.707 56.356C26.259 57.028 26.631 57.88 26.823 58.912C27.015 59.92 27.111 61.204 27.111 62.764C27.111 64.252 27.015 65.488 26.823 66.472C26.655 67.456 26.307 68.284 25.779 68.956C25.179 69.724 24.315 70.312 23.187 70.72C22.083 71.104 20.631 71.296 18.831 71.296H15.843V65.788Z" fill="#6CAC3D"/>
<path d="M38.2181 61.684C38.7221 61.204 39.3101 60.868 39.9821 60.676C40.6781 60.46 41.5301 60.352 42.5381 60.352V66.364C41.4581 66.364 40.5701 66.436 39.8741 66.58C39.2021 66.724 38.6501 66.976 38.2181 67.336V61.684ZM30.0461 60.64H36.7061V79H30.0461V60.64ZM55.4233 69.856C55.4233 68.632 55.4113 67.816 55.3873 67.408C55.3633 66.832 55.2913 66.4 55.1713 66.112C55.0513 65.8 54.8593 65.608 54.5953 65.536C54.3073 65.464 53.9113 65.428 53.4073 65.428H52.9033V60.352H53.4073C55.4953 60.352 57.1273 60.52 58.3033 60.856C59.4793 61.168 60.3553 61.696 60.9313 62.44C61.4593 63.112 61.7953 64.012 61.9393 65.14C62.1073 66.244 62.1913 67.816 62.1913 69.856C62.1913 71.752 62.1313 73.228 62.0113 74.284C61.9153 75.316 61.6633 76.168 61.2553 76.84C60.7993 77.584 60.1153 78.148 59.2033 78.532C58.2913 78.892 57.0313 79.12 55.4233 79.216V69.856ZM53.4073 79.288C51.3193 79.288 49.6873 79.132 48.5113 78.82C47.3353 78.508 46.4593 77.98 45.8833 77.236C45.3553 76.564 45.0073 75.676 44.8393 74.572C44.6953 73.468 44.6233 71.896 44.6233 69.856C44.6233 67.984 44.6833 66.52 44.8033 65.464C44.9233 64.408 45.1873 63.532 45.5953 62.836C46.0273 62.068 46.6993 61.504 47.6113 61.144C48.5233 60.76 49.7833 60.52 51.3913 60.424V69.856C51.3913 71.08 51.4033 71.884 51.4273 72.268C51.4513 72.844 51.5233 73.276 51.6433 73.564C51.7633 73.852 51.9673 74.032 52.2553 74.104C52.4953 74.176 52.8793 74.212 53.4073 74.212H53.9113V79.288H53.4073ZM88.2649 57.796C88.1929 58.084 88.1569 58.492 88.1569 59.02V60.64H92.5489V65.716H64.3609V60.64H67.7449V60.244C67.7449 58.204 67.8889 56.656 68.1769 55.6C68.4649 54.544 68.9929 53.776 69.7609 53.296C70.4809 52.84 71.4769 52.552 72.7489 52.432C74.0209 52.312 76.0369 52.252 78.7969 52.252V56.86C77.5489 56.86 76.7329 56.872 76.3489 56.896C75.7729 56.92 75.3289 57.004 75.0169 57.148C74.7289 57.292 74.5609 57.508 74.5129 57.796C74.4409 58.084 74.4049 58.492 74.4049 59.02V60.64H81.4969V60.244C81.4969 58.204 81.6409 56.656 81.9289 55.6C82.2169 54.544 82.7449 53.776 83.5129 53.296C84.2329 52.84 85.2289 52.552 86.5009 52.432C87.7729 52.312 89.7889 52.252 92.5489 52.252V56.86C91.3009 56.86 90.4849 56.872 90.1009 56.896C89.5249 56.92 89.0809 57.004 88.7689 57.148C88.4809 57.292 88.3129 57.508 88.2649 57.796ZM67.7449 67.156H74.4049V79H67.7449V67.156ZM81.4969 67.156H88.1569V79H81.4969V67.156Z" fill="black"/>
<path d="M15.1818 19.312V18.232H21.8058L32.1738 40.264L30.9858 43H26.3058L15.1818 19.312ZM35.5218 32.596H35.3778L32.9658 38.428L29.8698 31.804L35.5218 18.232H42.3618V43H35.5218V32.596ZM15.1818 22.876L21.8058 36.988V43H15.1818V22.876Z" fill="#2D4872"/>
<path d="M56.1414 31.624C56.1414 31 56.1174 30.556 56.0694 30.292C56.0214 30.028 55.8774 29.836 55.6374 29.716C55.4214 29.596 55.0134 29.512 54.4134 29.464C54.0534 29.44 53.2734 29.428 52.0734 29.428C50.9214 29.428 49.8534 29.476 48.8694 29.572L46.9614 29.68V25C49.2174 24.568 51.6534 24.352 54.2694 24.352C56.2854 24.352 57.8574 24.496 58.9854 24.784C60.1374 25.072 61.0014 25.528 61.5774 26.152C62.0814 26.728 62.4054 27.46 62.5494 28.348C62.7174 29.236 62.8014 30.472 62.8014 32.056V43H56.1414V31.624ZM50.8134 43.252C49.1574 43.252 47.9334 42.796 47.1414 41.884C46.3494 40.948 45.9534 39.544 45.9534 37.672C45.9534 36.52 46.0374 35.596 46.2054 34.9C46.3734 34.18 46.6614 33.616 47.0694 33.208C47.4774 32.776 48.0414 32.476 48.7614 32.308C49.4814 32.116 50.4294 32.02 51.6054 32.02L54.6294 32.092V35.296H54.2694C53.7174 35.296 53.3574 35.308 53.1894 35.332C52.7094 35.356 52.4574 35.584 52.4334 36.016C52.4094 36.16 52.3974 36.46 52.3974 36.916C52.3974 37.276 52.4094 37.552 52.4334 37.744C52.4814 37.936 52.5534 38.092 52.6494 38.212C52.7694 38.38 52.9494 38.476 53.1894 38.5C53.5254 38.548 53.8854 38.572 54.2694 38.572H54.6294V42.244C54.1014 42.652 53.5374 42.916 52.9374 43.036C52.3614 43.18 51.6534 43.252 50.8134 43.252ZM65.2356 24.64H72.5076L84.8916 43H77.6196L65.2356 24.64ZM76.2876 27.52L77.7996 24.64H84.6396L79.7076 32.596L76.2876 27.52ZM70.1676 34.684L73.5876 39.76L71.8596 43H65.0196L70.1676 34.684Z" fill="black"/>
</svg>
