<svg width="61" height="58" viewBox="0 0 61 58" fill="none" xmlns="http://www.w3.org/2000/svg">
<path fill-rule="evenodd" clip-rule="evenodd" d="M12.3923 0.275695C10.6905 0.865265 9.42966 2.34359 9.08689 4.15155C9.01048 4.55421 8.96876 11.7026 8.96876 24.387V44H5.32693H1.68509L1.3299 44.3552L0.974701 44.7105L1.02521 46.4353C1.06388 47.7533 1.12681 48.2846 1.29169 48.6875C1.90271 50.1799 3.07411 51.2987 4.4806 51.7331C5.22884 51.9643 5.54642 51.9687 21.1039 51.9687H36.9643L36.9998 54.6549C37.0348 57.3138 37.0381 57.344 37.3192 57.6432C37.869 58.2277 38.2081 58.1053 40.2185 56.5962L42.0156 55.2473L43.8128 56.5962C45.1983 57.6363 45.6927 57.9453 45.9712 57.9453C46.9815 57.9453 47.0547 57.7158 47.0547 54.5527V51.9687H47.9374C48.9003 51.9687 49.9306 51.6856 50.6675 51.2186C51.7573 50.5277 52.6665 49.1729 52.9131 47.8719C52.9895 47.4692 53.0313 40.3208 53.0313 27.6364V8.02343H56.6731H60.3149L60.6575 7.68089C60.9992 7.33917 61 7.3346 61 5.88909C61 4.20698 60.8159 3.33944 60.2627 2.4146C59.7748 1.59909 59.0199 0.932179 58.0703 0.477726L57.3086 0.113273L35.1602 0.08714C13.9581 0.062179 12.9852 0.0702649 12.3923 0.275695ZM51.5157 2.88898L51.0977 3.73109L51.0391 25.7112C50.9835 46.5569 50.9696 47.7155 50.7694 48.1601C50.1871 49.4538 48.6117 50.2492 47.3184 49.9027L47.0547 49.8321V46.2783C47.0547 44.0023 47.0975 42.6984 47.1735 42.6513C47.4053 42.5081 47.7465 41.6814 47.8283 41.0646C47.8866 40.6246 48.0243 40.2908 48.2924 39.9394C48.7859 39.293 48.9783 38.7078 48.9644 37.8962C48.9522 37.1899 48.5717 36.2729 48.122 35.8666C47.9699 35.7291 47.875 35.501 47.875 35.2727C47.875 33.7194 46.6413 32.3531 45.0973 32.1966C44.5565 32.1418 44.3256 32.0492 43.9648 31.7421C42.8214 30.7689 41.2099 30.7689 40.0665 31.7421C39.7056 32.0492 39.4748 32.1418 38.934 32.1966C37.39 32.3531 36.1563 33.7194 36.1563 35.2727C36.1563 35.501 36.0613 35.7291 35.9092 35.8666C35.4596 36.2729 35.0791 37.1899 35.0669 37.8962C35.0529 38.7078 35.2454 39.293 35.7388 39.9394C36.007 40.2908 36.1447 40.6246 36.203 41.0646C36.2848 41.6814 36.626 42.5081 36.8577 42.6513C36.9231 42.6917 36.9766 43.0116 36.9766 43.3624V44H23.9675H10.9583L10.989 24.166L11.0195 4.33202L11.2651 3.80468C11.5672 3.15581 12.1565 2.55757 12.7774 2.26952C13.2279 2.06046 13.9959 2.05191 32.5899 2.04944L51.9338 2.04687L51.5157 2.88898ZM57.3443 2.35038C58.4449 2.89882 59.0078 3.91378 59.0078 5.34944V6.03124H56.0195H53.0313L53.0338 5.18163C53.0381 3.79284 53.5888 2.86589 54.7305 2.32612C55.5561 1.93589 56.5306 1.94491 57.3443 2.35038ZM23.9688 9.02105V10.0187L27.9824 9.98784L31.9961 9.95702L32.0301 8.99023L32.0642 8.02343H28.0164H23.9688V9.02105ZM34.0469 9.01952V10.0156H36.0391H38.0313V9.01952V8.02343H36.0391H34.0469V9.01952ZM21.0391 14V15.0547H31H40.961V14V12.9453H31H21.0391V14ZM16 20.0375V21.0359L18.4902 21.0043L20.9805 20.9726L21.0145 20.0059L21.0486 19.0391H18.5242H16V20.0375ZM23.0313 20.0351V21.0312H34.5156H46V20.0351V19.0391H34.5156H23.0313V20.0351ZM16 24.957V25.9531H21.5078H27.0156V24.957V23.9609H21.5078H16V24.957ZM29.0078 24.957V25.9531H37.5039H46V24.957V23.9609H37.5039H29.0078V24.957ZM16 29.9961V30.9922H26.0195H36.0391V29.9961V29H26.0195H16V29.9961ZM42.4138 33.097C42.5767 33.159 42.8458 33.4246 43.0117 33.6875C43.3941 34.2931 43.7372 34.4307 44.4141 34.2496C45.3959 33.9871 46.0066 34.6155 45.752 35.6262C45.5819 36.3025 45.7216 36.6472 46.306 36.9919C47.0773 37.4471 47.1984 38.2801 46.5627 38.7587C45.6865 39.4184 45.6136 39.5286 45.7059 40.0538C45.8444 40.8418 45.8133 41.1748 45.5773 41.4369C45.2457 41.8051 44.9315 41.8817 44.3241 41.7427C43.6401 41.5863 43.2766 41.7298 42.9993 42.2664C42.7381 42.7719 42.5071 42.937 42.0545 42.9416C41.4956 42.9472 41.3249 42.8431 41.0684 42.3403C40.7568 41.7295 40.4146 41.5807 39.6998 41.745C38.633 41.9901 38.0153 41.3989 38.2711 40.3777C38.4473 39.675 38.2881 39.2581 37.7449 38.999C37.5066 38.8855 37.2596 38.6431 37.1529 38.4181C36.991 38.077 36.9895 37.985 37.1397 37.6255C37.2364 37.3941 37.4648 37.1384 37.6694 37.0327C37.8672 36.9304 38.1175 36.7116 38.2257 36.5466C38.3971 36.285 38.4036 36.1736 38.2761 35.6762C38.102 34.9973 38.2513 34.5643 38.7569 34.2809C39.0209 34.1329 39.1591 34.1272 39.6027 34.2459C40.2951 34.431 40.6348 34.2969 41.0202 33.6864C41.4216 33.0506 41.8335 32.8763 42.4138 33.097ZM16 35.0351V36.0312H24.4961H32.9922V35.0351V34.0391H24.4961H16V35.0351ZM40.0758 44.2822C40.7103 44.7665 41.2734 44.9646 42.0156 44.9646C42.7579 44.9646 43.321 44.7665 43.9554 44.2822C44.2431 44.0626 44.6099 43.8828 44.7706 43.8828H45.0625V49.3906C45.0625 52.4199 45.0276 54.8984 44.9849 54.8984C44.9423 54.8984 44.4281 54.5382 43.8422 54.0979C43.2565 53.6575 42.662 53.2357 42.5213 53.1604C42.016 52.89 41.7037 53.0088 40.4191 53.9609C39.7235 54.4766 39.1124 54.8984 39.0615 54.8984C39.0105 54.8984 38.9688 52.4199 38.9688 49.3906V43.8828H39.2607C39.4213 43.8828 39.7881 44.0626 40.0758 44.2822ZM36.9766 47.9844V49.9766H21.2323C9.60662 49.9766 5.38388 49.941 5.08974 49.8407C3.81767 49.4071 3.10107 48.3932 3.01494 46.9048L2.96208 45.9922H19.9694H36.9766V47.9844Z" fill="black"/>
</svg>
