<svg width="50" height="60" viewBox="0 0 50 60" fill="none" xmlns="http://www.w3.org/2000/svg">
<path fill-rule="evenodd" clip-rule="evenodd" d="M23.3594 0.0683083C23.1982 0.0966676 22.75 0.175652 22.3633 0.243855C17.4659 1.10694 14.2312 4.74186 13.1001 10.6529C13.0063 11.1424 12.9297 11.713 12.9297 11.9208C12.9297 12.2142 12.8577 12.3361 12.6074 12.4663C12.1639 12.697 11.8028 13.1059 11.5877 13.6209C11.3504 14.1887 11.3402 16.1385 11.5716 16.6922C11.7242 17.0574 11.7152 17.1307 11.4544 17.6458C11.1952 18.1578 11.1721 18.3397 11.1745 19.8538C11.1774 21.7338 11.3058 22.1817 12.0223 22.8109C12.5579 23.281 13.1637 23.4786 13.8639 23.4114L14.4193 23.3579L14.4897 24.7161C14.5288 25.4695 14.6672 26.4886 14.8006 27.0049C15.2583 28.7769 16.399 30.6257 17.7195 31.7355L18.3203 32.2405V33.1533V34.066L17.2949 34.3349C15.0288 34.9291 10.2517 36.5598 8.53516 37.3251C7.24504 37.9003 5.9302 38.7757 5.28438 39.4892C4.13887 40.7552 3.05406 43.2615 2.51898 45.8789C2.22731 47.3054 0.683242 58.9254 0.773359 59.0155C0.877656 59.1198 2.20059 59.2791 2.27863 59.1967C2.31801 59.1551 2.67613 56.6162 3.07457 53.5547C3.47313 50.4932 3.9018 47.4323 4.0273 46.753C4.45387 44.4443 5.12934 42.5604 6.01984 41.1964C6.64586 40.2374 6.97129 39.9572 8.27148 39.2575L9.17969 38.7687V42.3404V45.9121L8.86926 45.99C8.33781 46.1233 7.14473 47.4283 6.82797 48.2226C6.5493 48.9216 6.54742 48.9574 6.5084 54.1677L6.46926 59.4096L6.76445 59.7048L7.05965 60H24.9817C42.4503 60 42.9107 59.9944 43.1804 59.776L43.457 59.5521L43.491 55.0592C43.5105 52.4972 43.4738 50.1453 43.4058 49.5867C43.2052 47.9384 42.5358 46.8322 41.3254 46.1491L40.7031 45.7979V42.3521C40.7031 40.0449 40.7434 38.9062 40.825 38.9062C41.0154 38.9062 41.8687 39.364 42.5921 39.8542C43.6645 40.5808 44.4865 41.9128 45.2132 44.101C45.7891 45.8348 45.9127 46.5442 46.7962 53.1831C47.2364 56.4915 47.6165 59.2181 47.6406 59.2423C47.688 59.2896 49.1445 59.1007 49.1973 59.0403C49.2303 59.0027 48.1619 50.8165 47.7319 47.8125C47.3332 45.0273 46.8128 43.2546 45.8264 41.3216C44.8415 39.3917 43.7526 38.431 41.2305 37.2668C40.0026 36.6998 35.8755 35.2719 33.584 34.621L31.5625 34.0468V33.1751V32.3033L32.435 31.4993C34.3764 29.7104 35.2837 27.6846 35.397 24.8855L35.4595 23.3453L36.1184 23.4007C37.0476 23.479 37.9213 23.0287 38.4174 22.2162C38.7678 21.6424 38.7695 21.6303 38.7695 19.8724C38.7695 18.243 38.7486 18.0689 38.5 17.6354C38.2374 17.1774 38.2352 17.1477 38.4121 16.4682C38.8575 14.7581 38.4503 13.0164 37.4979 12.5584C37.1213 12.3772 37.1412 12.4288 36.9481 11.1367C36.6456 9.11307 35.8723 6.90175 34.8875 5.24448C34.2051 4.09604 32.4114 2.24507 31.4063 1.6521C30.4695 1.09932 28.9847 0.5278 27.8711 0.291082C26.9774 0.101121 24.0055 -0.045598 23.3594 0.0683083ZM24.5313 4.87827V8.11593L24.0517 8.03917C23.404 7.93557 22.7383 7.58038 22.1148 7.00569L21.5966 6.52804L21.6284 4.29456L21.6602 2.06108L22.1289 1.95761C22.8122 1.8069 23.7136 1.67202 24.1504 1.65526L24.5313 1.64061V4.87827ZM28.1934 2.06882L28.9844 2.27178V4.40214V6.53261L28.4484 7.02679C27.9016 7.53069 27.2344 7.8819 26.5527 8.02475L26.1719 8.10456V4.89011V1.67565L26.7871 1.77069C27.1254 1.82307 27.7584 1.95714 28.1934 2.06882ZM19.9609 4.82366V6.83495L20.3337 7.41585C21.2846 8.89768 23.1977 9.78233 25.4102 9.76323C27.4957 9.7453 29.2967 8.87929 30.2541 7.43389L30.625 6.87386V5.01479V3.15585L30.8887 3.29319C31.0338 3.36889 31.6006 3.88511 32.1484 4.44046C33.604 5.91596 34.4993 7.63464 35.0825 10.0724C35.2771 10.8866 35.5363 12.7119 35.5449 13.3301C35.5485 13.5978 36.0107 13.9453 36.3631 13.9453C36.8222 13.9453 36.9531 14.2144 36.9531 15.1584C36.9531 16.186 36.9003 16.289 36.3721 16.289C35.8425 16.289 35.2362 16.4842 34.8572 16.7766C34.5911 16.9819 34.1187 16.9922 24.9325 16.9922C18.0223 16.9922 15.2646 16.9555 15.2073 16.8628C15.0599 16.6243 14.1653 16.2942 13.6592 16.2916C13.2304 16.2894 13.1418 16.2457 13.0439 15.9885C12.8958 15.5987 12.8995 14.9376 13.0531 14.3848C13.1625 13.9904 13.2148 13.9453 13.5616 13.9453C14.1607 13.9453 14.354 13.6362 14.4577 12.512C14.7936 8.87225 16.0952 5.85913 18.1207 4.03218C18.7082 3.50237 19.6913 2.81928 19.873 2.81471C19.9213 2.81354 19.9609 3.71753 19.9609 4.82366ZM14.1654 18.1002C14.4391 18.3737 14.4531 18.4569 14.4531 19.7994C14.4531 21.0547 14.4272 21.2368 14.2188 21.4453C13.8815 21.7826 13.3755 21.7951 13.0176 21.4752C12.8425 21.3186 12.8125 21.0725 12.8125 19.7951C12.8125 18.3176 12.8165 18.2951 13.1213 18.0554C13.5268 17.7364 13.8141 17.7487 14.1654 18.1002ZM36.8998 18.1002C37.1723 18.3725 37.1875 18.4601 37.1875 19.7484C37.1875 20.4968 37.1358 21.2057 37.0728 21.3235C36.777 21.8762 35.8832 21.8074 35.5802 21.2086C35.4034 20.8591 35.3826 19.1001 35.5482 18.5039C35.7391 17.8166 36.4145 17.6148 36.8998 18.1002ZM33.8745 22.2949C33.8116 26.39 33.7857 26.5569 32.9542 28.2382C32.2696 29.6225 31.0605 30.8298 29.6835 31.5041C28.1598 32.2501 27.6357 32.344 25.0047 32.342C22.3865 32.34 21.7219 32.2281 20.3332 31.5547C19.0172 30.9165 17.5914 29.4804 16.9284 28.125C16.178 26.591 16.0981 26.0095 16.0957 22.0605L16.0938 18.6328H25.0123H33.9307L33.8745 22.2949ZM21.9597 33.817C22.7116 33.9692 23.4055 33.9971 25.4434 33.9567C27.8228 33.9095 28.0476 33.8858 28.9001 33.5937C29.4016 33.4219 29.8367 33.2812 29.8669 33.2812C29.8971 33.2812 29.9219 33.5441 29.9219 33.8653C29.9219 34.4478 29.9147 34.4586 27.4418 37.6196C26.0778 39.3633 24.9262 40.7483 24.8827 40.6977C24.8393 40.6469 23.7141 39.2237 22.3824 37.5349L19.9609 34.4642V33.8183V33.1724L20.491 33.3996C20.7824 33.5245 21.4434 33.7124 21.9597 33.817ZM21.8834 39.4996C23.5531 41.6224 24.9505 43.357 24.9889 43.3543C25.0272 43.3515 26.4033 41.6141 28.0469 39.4935C29.6904 37.3727 31.0879 35.6372 31.1523 35.6366C31.2168 35.6361 32.0342 35.8584 32.9688 36.1307L34.668 36.6257L34.6986 41.2816L34.7293 45.9375H24.9427H15.1563L15.1567 42.7441C15.157 40.9877 15.1912 38.8857 15.2325 38.0729L15.308 36.5951L16.9606 36.1193C17.8696 35.8576 18.666 35.6427 18.7305 35.6416C18.7949 35.6406 20.2137 37.3766 21.8834 39.4996ZM13.9189 47.4118C14.2598 47.661 35.7402 47.661 36.0811 47.4118C36.2985 47.2529 36.3112 47.0232 36.3672 42.2164L36.4258 37.1873L37.7388 37.6509L39.0518 38.1144L39.0864 42.424C39.1254 47.2696 39.0932 47.0995 40.0202 47.3491C40.6186 47.5103 41.2709 48.0991 41.5723 48.75C41.8041 49.2506 41.8183 49.5073 41.8543 53.8183L41.892 58.3594H25.0086H8.125V53.9862C8.125 49.0816 8.16648 48.7536 8.87957 48.0194C9.10246 47.7899 9.53805 47.51 9.84754 47.3975C10.875 47.0239 10.8203 47.303 10.8203 42.433V38.1343L12.1973 37.6563L13.5742 37.1783L13.6328 42.212C13.6888 47.0232 13.7015 47.2529 13.9189 47.4118ZM10 49.8633V50.6301L12.1973 50.5983L14.3945 50.5664V49.8633V49.1601L12.1973 49.1283L10 49.0964V49.8633ZM35.5469 49.8633V50.625H37.7148H39.8828V49.8633V49.1016H37.7148H35.5469V49.8633Z" fill="black"/>
</svg>
