<svg width="60" height="60" viewBox="0 0 60 60" fill="none" xmlns="http://www.w3.org/2000/svg">
<path fill-rule="evenodd" clip-rule="evenodd" d="M19.251 0.180375C16.5171 0.916664 14.6191 3.47077 14.7929 6.17932L14.8477 7.03127H13.656C11.6916 7.03127 10.6215 7.52252 9.90234 8.75487L9.55078 9.35721L6.09375 9.39541C2.84836 9.43127 2.60332 9.44909 2.09191 9.68545C1.39547 10.0074 0.632344 10.7705 0.31043 11.4669L0.0585938 12.0117V34.6875V57.3633L0.31043 57.9081C0.632344 58.6046 1.39547 59.3677 2.09191 59.6896L2.63672 59.9414H20.625H38.6133L39.1581 59.6896C39.8545 59.3677 40.6177 58.6046 40.9396 57.9081L41.1914 57.3633V34.6875V12.0117L40.9396 11.4669C40.6177 10.7705 39.8545 10.0074 39.1581 9.68545C38.6467 9.44909 38.4016 9.43127 35.1562 9.39541L31.6992 9.35721L31.3477 8.75487C30.6285 7.52252 29.5584 7.03127 27.594 7.03127H26.4023L26.4571 6.17932C26.7012 2.37623 22.887 -0.798961 19.251 0.180375ZM22.0559 2.66827C23.6845 3.38862 24.5153 5.32092 23.9065 6.97268C23.4976 8.08221 23.4782 8.56983 23.8268 8.97565L24.1196 9.31643L26.4715 9.37502L28.8234 9.43362L29.148 9.75823L29.4727 10.0828L29.5097 12.0727L29.5467 14.0625H20.625H11.7033L11.7403 12.0727L11.7773 10.0828L12.102 9.75823L12.4266 9.43362L14.7785 9.37502L17.1304 9.31643L17.4128 8.9876C17.7638 8.5792 17.777 8.06604 17.4554 7.33901C16.5997 5.40471 17.5196 3.26006 19.5108 2.54721C20.2439 2.28471 21.3027 2.3351 22.0559 2.66827ZM20.2017 4.80237C19.8328 4.95143 19.4531 5.49459 19.4531 5.87334C19.4531 6.34245 19.9917 6.90541 20.5211 6.98944C20.8779 7.04616 21.0063 7.00139 21.3387 6.70444C21.6679 6.4103 21.733 6.27084 21.733 5.8594C21.733 5.45159 21.6674 5.30815 21.3529 5.02713C20.9679 4.68307 20.6504 4.62108 20.2017 4.80237ZM49.5108 5.59409C48.4057 5.98971 47.6073 6.8201 47.2771 7.91744C47.1668 8.28377 47.1094 9.02522 47.1094 10.081C47.1094 11.4681 47.0796 11.7253 46.8915 11.9666C46.5565 12.3967 46.2682 13.0077 46.0964 13.6524C45.9698 14.1274 45.94 17.4391 45.9389 31.1569C45.9374 49.9128 45.9189 49.411 46.6992 51.756C47.1914 53.2351 47.8712 54.6017 48.7649 55.909L49.4531 56.9158V58.0459C49.4531 59.114 49.4708 59.1957 49.7754 59.5335C49.9779 59.758 50.255 59.916 50.5211 59.9582C50.8781 60.0149 51.0063 59.9701 51.3401 59.6719C51.7337 59.3202 51.7362 59.3117 51.7987 58.0479L51.8617 56.7774L52.528 55.828C53.8722 53.9133 54.7852 51.627 55.1282 49.317C55.288 48.24 55.3125 46.1757 55.3125 33.7511V19.4267L56.1341 19.4731C56.8398 19.513 57.0008 19.5647 57.2767 19.8405L57.5977 20.1613L57.6562 25.3125L57.7148 30.4637L58.0141 30.7629C58.1787 30.9273 58.5011 31.0924 58.7304 31.1297C59.0812 31.1866 59.2105 31.1411 59.5445 30.8426L59.9414 30.488V25.1171C59.9414 19.8689 59.9357 19.7337 59.6896 19.2013C59.5511 18.9017 59.2161 18.4349 58.9453 18.1641C58.2414 17.4601 57.5691 17.1941 56.3379 17.1323L55.3125 17.0807L55.3111 15.6596C55.3093 13.8734 55.0242 12.7494 54.3901 12.0292C54.2368 11.8551 54.1869 11.4392 54.1371 9.91983C54.0657 7.74647 53.9263 7.28569 53.0859 6.44534C52.1543 5.5137 50.7015 5.16776 49.5108 5.59409ZM51.4431 8.14784C51.6879 8.39252 51.7405 8.57229 51.7766 9.28748L51.8195 10.1367H50.625H49.4305L49.4728 9.29745C49.517 8.42229 49.7012 8.06065 50.2148 7.8408C50.5723 7.68764 51.1195 7.82452 51.4431 8.14784ZM9.375 12.8829V14.0471L7.38516 14.0841L5.39531 14.1211L5.0707 14.4461L4.74609 14.7709V34.6875V54.6041L5.07105 54.929L5.3959 55.2539L20.5657 55.2845L35.7356 55.3151L36.1198 54.9719L36.5039 54.6286V34.6875V14.7464L36.1212 14.4045L35.7384 14.0625H33.8067H31.875V12.8853V11.708L35.0366 11.7427L38.1982 11.7774L38.5229 12.1023L38.8477 12.4272V34.6875V56.9479L38.5227 57.2727L38.1978 57.5977H20.625H3.05215L2.7273 57.2727L2.40234 56.9479V34.6971C2.40234 12.6115 2.4041 12.4445 2.63672 12.186C2.76563 12.0427 2.97656 11.8824 3.10547 11.8295C3.23438 11.7768 4.6977 11.7303 6.35742 11.7262L9.375 11.7188V12.8829ZM51.8978 12.8352C52.204 13.0378 52.481 13.3641 52.6717 13.7468C52.9392 14.2837 52.9688 14.4805 52.9688 15.7261V17.1094H50.6135H48.2583L48.3005 15.5567C48.3407 14.0772 48.3584 13.9806 48.6764 13.51C49.4002 12.4388 50.8423 12.1367 51.8978 12.8352ZM34.2188 29.9959V43.5856L29.8731 43.619L25.5274 43.6524L25.1856 44.0351L24.8438 44.4178V48.6933V52.9688H15.9375H7.03125V34.6875V16.4063H20.625H34.2188V29.9959ZM52.9688 32.6953V45.9375H50.625H48.2812V32.6953V19.4531H50.625H52.9688V32.6953ZM12.4805 21.9076C11.7525 22.2056 11.5361 23.1908 12.0792 23.7341C12.2425 23.8973 12.5694 24.0621 12.8059 24.1006C13.1863 24.1622 13.2837 24.1226 13.6492 23.7571C14.2055 23.2008 14.2098 22.7411 13.6641 22.1953C13.2641 21.7954 12.9445 21.7177 12.4805 21.9076ZM17.1548 21.9117C16.7859 22.0608 16.4062 22.604 16.4062 22.9827C16.4062 23.186 16.54 23.4664 16.7481 23.6993L17.09 24.0821L22.895 24.1145L28.7002 24.147L29.0837 23.8042C29.4019 23.5199 29.4674 23.3775 29.4674 22.9688C29.4674 22.561 29.4018 22.4175 29.0872 22.1365L28.7072 21.7969L23.0548 21.8043C19.9459 21.8084 17.291 21.8568 17.1548 21.9117ZM12.4805 29.642C11.7345 29.9474 11.5362 30.9253 12.1049 31.4942L12.4271 31.8164L20.5645 31.8481L28.702 31.8797L29.0846 31.5378C29.4019 31.2544 29.4674 31.1115 29.4674 30.7032C29.4674 30.2953 29.4018 30.1519 29.0872 29.8709L28.7072 29.5313L20.711 29.5387C16.3131 29.5428 12.6094 29.5893 12.4805 29.642ZM12.4805 34.3295C11.7345 34.6349 11.5362 35.6128 12.1049 36.1817L12.4271 36.5039L20.5645 36.5356L28.702 36.5672L29.0846 36.2253C29.4019 35.9419 29.4674 35.799 29.4674 35.3907C29.4674 34.9828 29.4018 34.8394 29.0872 34.5584L28.7072 34.2188L20.711 34.2262C16.3131 34.2303 12.6094 34.2768 12.4805 34.3295ZM12.4805 39.017C11.7345 39.3224 11.5362 40.3003 12.1049 40.8692L12.4271 41.1914L20.5645 41.2231L28.702 41.2547L29.0846 40.9128C29.4019 40.6294 29.4674 40.4865 29.4674 40.0782C29.4674 39.6703 29.4018 39.5269 29.0872 39.2459L28.7072 38.9063L20.711 38.9137C16.3131 38.9178 12.6094 38.9643 12.4805 39.017ZM32.4609 45.9678C32.4609 45.9844 31.2744 47.1837 29.8242 48.6328L27.1875 51.2676V48.6026V45.9375H29.8242C31.2744 45.9375 32.4609 45.9511 32.4609 45.9678ZM34.2188 50.3321V52.9688H31.5537H28.8887L31.5234 50.3321C32.9726 48.8819 34.1719 47.6953 34.1885 47.6953C34.2052 47.6953 34.2188 48.8819 34.2188 50.3321ZM52.7992 48.9551C52.6909 49.8754 52.3138 51.2213 51.8882 52.2071C51.5032 53.0987 50.7595 54.375 50.625 54.375C50.4905 54.375 49.7468 53.0987 49.3618 52.2071C48.9362 51.2213 48.5591 49.8754 48.4508 48.9551L48.3715 48.2813H50.625H52.8785L52.7992 48.9551Z" fill="black"/>
</svg>
