<svg width="60" height="54" viewBox="0 0 60 54" fill="none" xmlns="http://www.w3.org/2000/svg">
<path fill-rule="evenodd" clip-rule="evenodd" d="M45.395 0.723885C44.6118 1.00396 44.1527 1.40416 41.0906 4.47681L38.5288 7.04744L37.9852 6.86744C37.1582 6.59381 34.4897 6.60306 33.5742 6.88279C32.7077 7.14752 31.6378 7.67943 30.9326 8.19588L30.4002 8.58576L29.8811 8.35338C28.6395 7.79756 27.57 7.60502 25.7813 7.61533C24.0391 7.62529 23.3788 7.74471 21.8871 8.31963L21.3327 8.53326L18.4162 5.63803C15.128 2.37353 14.9176 2.22623 13.5352 2.21908C11.9422 2.21088 12.1662 2.03451 6.11836 8.06017C-0.00890589 14.1651 0.0567191 14.083 0.0610551 15.6328C0.0650394 17.0903 0.169454 17.2383 3.69246 20.7836L6.79688 23.9076V24.7969C6.79688 25.9096 7.10742 26.9533 7.7209 27.9025C7.97332 28.2929 8.2391 28.6491 8.31176 28.694C8.39402 28.7448 8.04586 29.1959 7.38762 29.8914C6.20602 31.14 5.68723 32.0406 5.5077 33.1552C5.09461 35.7205 7.07391 38.2471 9.65941 38.4546L10.4 38.514L10.4595 39.2547C10.6204 41.259 12.3545 43.1359 14.2478 43.3548C15.367 43.4842 15.3105 43.4377 15.4443 44.3392C15.6069 45.4347 16.0358 46.3282 16.7343 47.0268C17.5894 47.8818 18.8299 48.4413 19.8765 48.444L20.3585 48.4453L20.4192 49.2007C20.5843 51.2585 22.2928 53.0729 24.3164 53.3396C26.0879 53.573 27.1822 53.1363 28.8275 51.5399L30 50.4021L31.1725 51.5399C32.8113 53.1301 33.9112 53.5698 35.6804 53.342C37.6904 53.0833 39.4158 51.2574 39.5796 49.2156L39.639 48.475L40.3964 48.4143C40.9448 48.3702 41.3912 48.236 42.0145 47.9281C43.4716 47.2078 44.3647 45.9147 44.4974 44.333C44.5734 43.4261 44.5137 43.4752 45.6829 43.3596C47.6121 43.1691 49.3771 41.2909 49.5405 39.2547L49.6 38.514L50.3406 38.4546C51.8493 38.3336 53.4782 37.2033 54.0948 35.8497C54.9452 33.9829 54.5728 32.0147 53.0737 30.4535L52.3513 29.7012L52.941 28.5442C53.7281 27.0001 53.9586 25.9529 53.8719 24.3161C53.8357 23.6331 53.7313 22.8369 53.6398 22.5469L53.4735 22.0195L56.4431 19.0184C59.7878 15.6382 59.93 15.4361 59.9372 14.0508C59.9454 12.4579 60.1218 12.6818 54.0961 6.634C49.8021 2.32431 48.5651 1.14752 48.0768 0.907752C47.2566 0.504979 46.2082 0.433143 45.395 0.723885ZM47.0292 2.98888C47.4055 3.17908 57.2887 13.0546 57.4985 13.4497C57.8316 14.0775 57.6507 14.412 56.1927 15.8659L54.8469 17.2079L51.8277 14.2097C49.8417 12.2374 48.7084 11.1953 48.5156 11.164C48.033 11.086 47.73 11.177 47.4114 11.4956C47.1757 11.7313 47.1094 11.9142 47.1094 12.3288V12.8601L50.1166 15.8817L53.1239 18.9034L52.0502 20.0264C50.803 21.331 50.7776 21.4261 51.2832 22.8897C51.557 23.6819 51.5839 23.9035 51.5339 24.9492C51.4898 25.8678 51.4082 26.2923 51.1557 26.9132C50.9786 27.3488 50.7824 27.7369 50.7197 27.7756C50.6571 27.8144 48.4612 25.7152 45.84 23.1108C43.098 20.3864 40.7877 18.1885 40.3996 17.935C38.9121 16.9633 37.5963 16.5738 35.8008 16.5738C34.4043 16.5738 33.4061 16.7891 32.2703 17.3354C31.1858 17.857 30.5139 18.3922 28.6482 20.2205C27.0731 21.7642 26.5905 22.08 25.8143 22.0756C25.2806 22.0725 24.529 21.744 24.1755 21.3595C23.5538 20.6833 23.3864 19.5798 23.7779 18.7383C23.923 18.4263 25.4024 16.8731 28.1992 14.0963C31.9604 10.3617 32.4824 9.88572 33.1641 9.56896C33.583 9.37431 34.2096 9.1492 34.5564 9.06869C35.4261 8.86689 37.0398 8.97681 37.8266 9.29135C38.1674 9.42764 38.6627 9.53908 38.9275 9.53908C39.4008 9.53908 39.4634 9.48494 42.7024 6.2726C44.5139 4.47599 46.0752 2.97728 46.1719 2.94201C46.4629 2.83596 46.7588 2.85213 47.0292 2.98888ZM17.1053 7.70346C18.8155 9.40455 20.3453 10.8826 20.5047 10.988C20.9156 11.26 21.2393 11.2279 22.0095 10.8392C23.3234 10.1759 24.2923 9.95099 25.8398 9.95006C26.8703 9.94947 27.4307 10.0062 27.9366 10.1624L28.6271 10.3757L25.285 13.7366C23.4468 15.5853 21.8531 17.2745 21.7434 17.4905C21.2006 18.5602 21.0591 19.9872 21.3882 21.0722C22.0617 23.2923 24.3163 24.7205 26.545 24.3387C27.9274 24.1019 28.4082 23.787 30.5026 21.7472C32.4736 19.8274 32.9759 19.4693 34.2108 19.103C35.0312 18.8595 36.5703 18.8595 37.3908 19.103C38.8545 19.5372 38.8962 19.5735 45.5609 26.2211C51.566 32.2108 51.9325 32.6001 52.098 33.1667C52.6467 35.0435 50.808 36.7064 49.0099 35.9597C48.7286 35.8429 47.6198 34.8288 45.8789 33.096C44.3965 31.6204 43.0275 30.3542 42.8366 30.2821C41.9195 29.9358 41.0228 30.8363 41.3696 31.755C41.4408 31.9435 42.7063 33.3106 44.1819 34.793C45.9148 36.5339 46.9288 37.6426 47.0456 37.924C47.7712 39.6714 46.2186 41.4888 44.3707 41.0553C43.8015 40.9218 43.6163 40.7625 40.8865 38.0587L38.0034 35.2031H37.4692C37.0165 35.2031 36.8886 35.2582 36.6315 35.5637C36.2788 35.9829 36.2348 36.5336 36.5198 36.9641C36.6253 37.1235 37.8627 38.4141 39.2695 39.832C40.9121 41.4877 41.8917 42.566 42.0074 42.8459C42.3841 43.7575 42.1509 44.9686 41.4988 45.4869C41.0786 45.8209 40.418 46.1016 40.0535 46.1009C39.0254 46.0992 38.882 45.992 35.7261 42.8658C32.404 39.5751 32.1333 39.3816 30.5246 39.1499L29.6769 39.0278L29.6213 38.258C29.4722 36.1955 27.5971 34.3467 25.482 34.177L24.7266 34.1163L24.7253 33.6344C24.7225 32.5792 24.1815 31.388 23.3086 30.5151C22.6009 29.8074 21.6795 29.3646 20.6559 29.2404C20.254 29.1915 19.8885 29.115 19.8437 29.0704C19.7991 29.0256 19.7198 28.6357 19.6679 28.2039C19.3324 25.4172 16.4434 23.5606 13.7507 24.4011C12.8238 24.6905 12.2904 25.0486 11.0802 26.1941C9.91277 27.2992 9.9791 27.3032 9.41262 26.094C9.15469 25.5434 9.12926 25.3559 9.1623 24.2503L9.19922 23.0195L7.58812 21.405L5.97715 19.7905L8.68418 17.0964C11.7431 14.0522 12.0703 13.6648 12.0703 13.0867C12.0703 12.486 11.5414 12 10.8875 12C10.3936 12 10.3678 12.022 7.36184 15.0137L4.33371 18.0274L3.39773 17.097C2.36824 16.0735 2.19082 15.6762 2.50148 15.0904C2.69332 14.729 12.5583 4.85053 12.9492 4.62846C13.0781 4.55533 13.3663 4.52135 13.5896 4.55299C13.9346 4.60197 14.4633 5.07564 17.1053 7.70346ZM44.3415 8.0051C43.6545 8.42392 43.5867 9.31514 44.2025 9.83334C44.696 10.2485 45.235 10.2237 45.6941 9.76443C46.3215 9.13701 46.1139 8.21053 45.2741 7.89131C44.8699 7.73767 44.7575 7.75127 44.3415 8.0051ZM13.7807 8.78053C13.3001 9.03119 13.133 9.29545 13.1287 9.81178C13.1207 10.785 14.2239 11.2875 14.9771 10.6537C15.6336 10.1012 15.4939 9.09857 14.715 8.77314C14.2096 8.56197 14.1996 8.56209 13.7807 8.78053ZM16.3141 26.8933C17.3263 27.5567 17.6987 28.8938 17.1601 29.9297C16.9337 30.3651 11.4866 35.7358 11.0508 35.9534C10.8444 36.0564 10.4261 36.1406 10.1209 36.1406C8.55621 36.1406 7.46098 34.6724 7.90254 33.1667C8.06367 32.6169 8.31809 32.3276 10.924 29.7292C12.548 28.1099 13.9457 26.8133 14.1797 26.7088C14.751 26.4539 15.7795 26.5428 16.3141 26.8933ZM21.2386 31.8379C21.8373 32.1695 22.2573 32.813 22.342 33.5283C22.4729 34.6335 22.3774 34.7687 19.2341 37.9322C16.5667 40.6167 16.3015 40.8506 15.7388 41.0149C14.9965 41.2316 14.4836 41.1518 13.7898 40.7119C12.862 40.1235 12.5163 38.8705 12.9974 37.8399C13.3129 37.1642 18.8053 31.7302 19.2773 31.6268C19.4707 31.5845 19.6816 31.5311 19.7461 31.5081C19.9893 31.4215 20.8172 31.6044 21.2386 31.8379ZM25.9315 36.6516C26.3747 36.8388 26.9043 37.3467 27.1481 37.8185C27.3987 38.3029 27.3688 39.307 27.0877 39.8496C26.9591 40.0977 25.5974 41.547 24.0618 43.0699C21.0415 46.0653 20.8806 46.1785 19.7931 46.074C19.0171 45.9994 18.369 45.5324 17.9921 44.7763C17.665 44.1197 17.6339 43.813 17.8239 43.1133C17.929 42.7259 18.4513 42.1419 20.8339 39.7479C22.4195 38.1549 23.878 36.7717 24.0751 36.6744C24.5237 36.4531 25.4353 36.4418 25.9315 36.6516ZM31.0334 41.7184C32.0469 42.2235 32.5294 43.333 32.2268 44.4632C32.1038 44.9228 31.7406 45.3366 29.3146 47.7813C27.7902 49.3174 26.3399 50.6792 26.0918 50.8072C25.8016 50.957 25.4098 51.0402 24.9941 51.0402C23.3483 51.0402 22.2616 49.3349 22.9133 47.7751C23.0261 47.5053 24.0759 46.3572 25.7521 44.6708C29.133 41.2692 29.6039 41.006 31.0334 41.7184ZM35.7889 46.2184C36.4141 46.8628 37.0022 47.573 37.0957 47.7967C37.7388 49.3358 36.64 51.0402 35.0046 51.0402C34.1372 51.0402 33.7556 50.8265 32.6114 49.6996L31.6486 48.7514L32.7914 47.573C33.6296 46.7086 34.0111 46.2155 34.223 45.7227C34.3818 45.3532 34.5434 45.0499 34.5819 45.0489C34.6205 45.0478 35.1636 45.5741 35.7889 46.2184Z" fill="black"/>
</svg>
